HIERARCHY
ROOT SpineBase
{
  OFFSET 0.000000 0.000000 0.000000
  CHANNELS 6 Xposition Yposition Zposition Zrotation Xrotation Yrotation
  JOINT SpineMid
  {
    OFFSET 0.000000 33.240069 0.000000
    CHANNELS 3 Zrotation Xrotation Yrotation
    JOINT SpineShoulder
    {
      OFFSET 0.056232 24.606722 -0.788034
      CHANNELS 3 Zrotation Xrotation Yrotation
      JOINT Neck
      {
        OFFSET 0.017789 8.110760 -0.603682
        CHANNELS 3 Zrotation Xrotation Yrotation
        JOINT Head
        {
          OFFSET 5.546370 12.313718 4.155953
          CHANNELS 3 Zrotation Xrotation Yrotation
          End Site
          {
            OFFSET 0 0 0
          }
        }
      }
      JOINT ShoulderLeft
      {
        OFFSET -10.083129 -3.467472 -12.360028
        CHANNELS 3 Zrotation Xrotation Yrotation
        JOINT ElbowLeft
        {
          OFFSET -7.171973 -25.440405 -5.363932
          CHANNELS 3 Zrotation Xrotation Yrotation
          JOINT WristLeft
          {
            OFFSET 1.336170 -22.129311 -3.960991
            CHANNELS 3 Zrotation Xrotation Yrotation
            JOINT HandLeft
            {
              OFFSET 0.575299 -1.984003 1.060053
              CHANNELS 3 Zrotation Xrotation Yrotation
              JOINT HandTipLeft
              {
                OFFSET -0.049333 -5.468561 -1.691639
                CHANNELS 3 Zrotation Xrotation Yrotation
                End Site
                {
                  OFFSET 0 0 0
                }
              }
              JOINT ThumbLeft
              {
                OFFSET 5.248502 2.715230 5.593548
                CHANNELS 3 Zrotation Xrotation Yrotation
                End Site
                {
                  OFFSET 0 0 0
                }
              }
            }
          }
        }
      }
      JOINT ShoulderRight
      {
        OFFSET 12.183216 -8.491955 10.105404
        CHANNELS 3 Zrotation Xrotation Yrotation
        JOINT ElbowRight
        {
          OFFSET 3.817681 -24.633877 7.606911
          CHANNELS 3 Zrotation Xrotation Yrotation
          JOINT WristRight
          {
            OFFSET 1.824264 -26.272547 5.007858
            CHANNELS 3 Zrotation Xrotation Yrotation
            JOINT HandRight
            {
              OFFSET -0.528458 -7.564271 1.293890
              CHANNELS 3 Zrotation Xrotation Yrotation
              JOINT HandTipRight
              {
                OFFSET -0.381233 -5.318169 -0.039102
                CHANNELS 3 Zrotation Xrotation Yrotation
                End Site
                {
                  OFFSET 0 0 0
                }
              }
              JOINT ThumbRight
              {
                OFFSET -1.877162 0.750603 -1.468169
                CHANNELS 3 Zrotation Xrotation Yrotation
                End Site
                {
                  OFFSET 0 0 0
                }
              }
            }
          }
        }
      }
    }
  }
  JOINT HipLeft
  {
    OFFSET -4.906058 1.231309 -8.478787
    CHANNELS 3 Zrotation Xrotation Yrotation
    JOINT KneeLeft
    {
      OFFSET -11.280042 -28.347286 -17.788402
      CHANNELS 3 Zrotation Xrotation Yrotation
      JOINT AnkleLeft
      {
        OFFSET -9.124659 -40.246537 15.750497
        CHANNELS 3 Zrotation Xrotation Yrotation
        JOINT FootLeft
        {
          OFFSET -2.975511 -8.319416 -6.607138
          CHANNELS 3 Zrotation Xrotation Yrotation
          End Site
          {
            OFFSET 0 0 0
          }
        }
      }
    }
  }
  JOINT HipRight
  {
    OFFSET 5.513064 0.041806 1.119371
    CHANNELS 3 Zrotation Xrotation Yrotation
    JOINT KneeRight
    {
      OFFSET 0.978576 -32.294998 6.653633
      CHANNELS 3 Zrotation Xrotation Yrotation
      JOINT AnkleRight
      {
        OFFSET -9.870778 -39.264356 6.737980
        CHANNELS 3 Zrotation Xrotation Yrotation
        JOINT FootRight
        {
          OFFSET 2.062963 -8.130211 -5.639448
          CHANNELS 3 Zrotation Xrotation Yrotation
          End Site
          {
            OFFSET 0 0 0
          }
        }
      }
    }
  }
}
MOTION
Frames: 13
Frame Time: 0.033333
-28.453416 80.228104 355.276521 -0.000000 0.000000 -42.651459 0.000000 0.000000 42.651459 -0.000000 0.000000 0.000000 -0.000000 0.000000 0.000000 0.000000 0.000000 0.000000 -0.000000 0.000000 0.000000 -0.000000 0.000000 0.000000 -0.000000 0.000000 0.000000 -0.000000 0.000000 0.000000 0.000000 0.000000 0.000000 0.000000 0.000000 0.000000 -0.000000 0.000000 0.000000 -0.000000 0.000000 0.000000 -0.000000 0.000000 0.000000 -0.000000 0.000000 0.000000 0.000000 0.000000 0.000000 0.000000 0.000000 0.000000 0.000000 0.000000 42.651459 -0.000000 0.000000 0.000000 -0.000000 0.000000 0.000000 0.000000 0.000000 0.000000 0.000000 0.000000 42.651459 -0.000000 0.000000 0.000000 -0.000000 0.000000 0.000000 0.000000 0.000000 0.000000
-28.452828 80.229386 355.306748 0.027189 -0.034825 -42.596654 -0.043586 0.007234 42.596665 -0.000000 0.000000 0.000000 -0.000000 0.000000 0.000000 0.000000 0.000000 0.000000 -0.000000 0.000000 0.000000 -0.000000 0.000000 0.000000 1.055579 -4.837041 -0.775249 -3.545032 4.554968 1.814925 0.000000 0.000000 0.000000 0.000000 0.000000 0.000000 -0.000000 0.000000 0.000000 -0.000000 0.000000 0.000000 0.689514 -1.124860 0.203046 -0.494546 2.491476 -0.294787 0.000000 0.000000 0.000000 0.000000 0.000000 0.000000 -0.043586 0.007234 42.596665 -0.000000 0.000000 0.000000 -0.000000 0.000000 0.000000 0.000000 0.000000 0.000000 -0.043586 0.007234 42.596665 -0.000000 0.000000 0.000000 1.466938 2.585132 -0.387300 0.000000 0.000000 0.000000
-28.452925 80.231974 355.335486 0.055142 -0.064575 -42.552783 -0.084291 0.010278 42.552822 -0.000000 0.000000 0.000000 -0.000000 0.000000 0.000000 0.000000 0.000000 0.000000 -0.000000 0.000000 0.000000 -0.000000 0.000000 0.000000 2.319430 -8.882982 -1.108772 -6.631734 8.071797 3.360701 0.000000 0.000000 0.000000 0.000000 0.000000 0.000000 -0.000000 0.000000 0.000000 -0.258176 1.170070 0.034746 1.262486 -3.157598 0.318459 -0.662145 4.478306 -0.492145 0.000000 0.000000 0.000000 0.000000 0.000000 0.000000 -0.084291 0.010278 42.552822 -0.000000 0.000000 0.000000 -0.000000 0.000000 0.000000 0.000000 0.000000 0.000000 -0.084291 0.010278 42.552822 -0.000000 0.000000 0.000000 2.590130 4.533917 -0.724384 0.000000 0.000000 0.000000
-28.453707 80.235869 355.362736 0.083866 -0.089255 -42.519828 -0.122135 0.009104 42.519903 -0.000000 0.000000 0.000000 -0.000000 0.000000 0.000000 0.000000 0.000000 0.000000 -0.000000 0.000000 0.000000 -0.000000 0.000000 0.000000 3.803125 -12.229508 -1.049179 -9.189449 10.720917 4.471015 0.000000 0.000000 0.000000 0.000000 0.000000 0.000000 -0.000000 0.000000 0.000000 -0.220117 1.658727 0.076635 1.185396 -4.273830 0.326947 -0.528072 6.032794 -0.605335 0.000000 0.000000 0.000000 0.000000 0.000000 0.000000 -0.122135 0.009104 42.519903 -0.000000 0.000000 0.000000 0.442939 -0.825257 -0.053803 0.000000 0.000000 0.000000 -0.122135 0.009104 42.519903 -0.000000 0.000000 0.000000 3.383692 5.893392 -0.982784 0.000000 0.000000 0.000000
-28.455175 80.241070 355.388497 0.113365 -0.108870 -42.497770 -0.157132 0.003685 42.497883 -0.000000 0.000000 0.000000 -0.000000 0.000000 0.000000 0.000000 0.000000 0.000000 -0.000000 0.000000 0.000000 -0.000000 0.000000 0.000000 5.506142 -14.962989 -0.641793 -11.145895 12.644986 5.027295 0.000000 0.000000 0.000000 0.000000 0.000000 0.000000 -0.000000 0.000000 0.000000 -0.063235 2.066017 0.133021 0.647161 -5.091196 0.217493 -0.106795 7.207587 -0.641606 0.000000 0.000000 0.000000 0.000000 0.000000 0.000000 -0.874711 0.384884 42.366652 0.273336 -0.765190 0.135489 0.513034 -1.001381 -0.045187 0.000000 0.000000 0.000000 -0.157132 0.003685 42.497883 -0.000000 0.000000 0.000000 3.858852 6.701901 -1.144889 0.000000 0.000000 0.000000
-28.457328 80.247577 355.412769 0.143645 -0.123422 -42.486594 -0.189290 -0.006005 42.486738 -0.000000 0.000000 0.000000 -0.000000 0.000000 0.000000 0.000000 0.000000 0.000000 -0.000000 0.000000 0.000000 -0.000000 0.000000 0.000000 7.419173 -17.156637 0.070909 -12.426997 13.943066 4.942304 0.000000 0.000000 0.000000 0.000000 0.000000 0.000000 0.537065 -0.709515 0.059056 -0.321163 3.091936 0.147238 -0.348502 -5.608211 -0.015311 0.596030 8.040028 -0.603293 0.000000 0.000000 0.000000 0.000000 0.000000 0.000000 -1.016144 0.453099 42.322039 0.302291 -0.896145 0.170290 0.545794 -1.129923 -0.024172 0.000000 0.000000 0.000000 -0.189290 -0.006005 42.486738 -0.000000 0.000000 0.000000 4.023287 6.984920 -1.201344 0.000000 0.000000 0.000000
-28.461547 80.259898 355.444039 0.173585 -0.131044 -42.522352 -0.216505 -0.020741 42.522512 -0.000000 0.000000 0.000000 -0.000000 0.000000 0.000000 0.000000 0.000000 0.000000 0.619620 -0.745845 0.083898 -0.618580 0.746708 -0.075834 8.870473 -18.232259 0.760992 -11.392735 11.414850 3.559725 0.000000 0.000000 0.000000 0.000000 0.000000 0.000000 0.631669 -0.738326 0.084466 -0.051377 3.246420 0.188445 -1.759853 -4.977972 -0.398487 0.921309 9.404374 -0.471573 0.000000 0.000000 0.000000 0.000000 0.000000 0.000000 -1.173474 0.487421 42.348260 0.365023 -1.020182 0.181399 0.530860 -1.298427 0.049352 0.000000 0.000000 0.000000 -0.216505 -0.020741 42.522512 -0.000000 0.000000 0.000000 3.406210 4.681250 -1.268576 0.000000 0.000000 0.000000
-28.465555 80.271463 355.471078 0.203812 -0.135566 -42.524244 -0.241837 -0.037846 42.524405 -0.000000 0.000000 0.000000 -0.000000 0.000000 0.000000 0.000000 0.000000 0.000000 0.712562 -0.851102 0.095309 -0.711224 0.852220 -0.084727 10.881087 -18.805079 1.913836 -10.410403 12.450161 1.563067 0.000000 0.000000 0.000000 0.000000 0.000000 0.000000 0.685215 -0.680654 0.109876 0.474052 3.364076 0.264921 -3.871692 -5.035292 -0.905760 2.892625 7.801615 -0.176487 0.000000 0.000000 0.000000 0.000000 0.000000 0.000000 -1.276246 0.543323 42.313781 0.373775 -1.126072 0.218860 0.482203 -1.313564 0.093387 0.000000 0.000000 0.000000 -0.241837 -0.037846 42.524405 -0.000000 0.000000 0.000000 2.204362 2.818135 -0.849576 0.000000 0.000000 0.000000
-28.471956 80.280089 355.486904 0.238387 -0.135860 -42.526502 -0.267515 -0.061009 42.526642 -0.000000 0.000000 0.000000 -0.000000 0.000000 0.000000 0.000000 0.000000 0.000000 0.783289 -0.883814 0.090373 -0.781987 0.884966 -0.078292 14.398412 -19.783030 3.949330 -11.000739 14.919821 -0.622219 0.000000 0.000000 0.000000 0.000000 0.000000 0.000000 0.700890 -0.548958 0.134392 1.094504 3.341774 0.347924 -6.354437 -5.232012 -1.488646 5.545619 7.994151 -0.005584 0.000000 0.000000 0.000000 0.000000 0.000000 0.000000 -1.304198 0.610222 42.252735 0.316106 -1.193867 0.282169 0.378376 -1.151485 0.116219 0.000000 0.000000 0.000000 -0.267515 -0.061009 42.526642 -0.000000 0.000000 0.000000 1.575931 3.276616 -0.299649 0.000000 0.000000 0.000000
-28.475720 80.281224 355.486770 0.274605 -0.125589 -42.515805 -0.287281 -0.093006 42.515873 -0.000000 0.000000 0.000000 -0.000000 0.000000 0.000000 0.000000 0.000000 0.000000 0.875541 -0.843058 0.059731 -0.379064 0.029040 -0.188787 17.140891 -20.496195 5.657201 -12.489261 17.982540 -1.818552 0.000000 0.000000 0.000000 0.000000 0.000000 0.000000 -0.000000 0.000000 0.000000 2.277147 2.643514 0.566855 -8.814648 -4.815725 -2.033719 8.029226 9.272214 0.136603 0.000000 0.000000 0.000000 0.000000 0.000000 0.000000 -1.235757 0.667762 42.161080 0.192514 -1.200534 0.361567 0.223575 -0.991638 0.180417 0.000000 0.000000 0.000000 -0.287281 -0.093006 42.515873 -0.000000 0.000000 0.000000 1.363556 4.022219 0.026545 0.000000 0.000000 0.000000
-28.478220 80.283473 355.483709 0.307095 -0.120710 -42.478992 -0.308008 -0.118361 42.478997 -0.000000 0.000000 0.000000 -0.000000 0.000000 0.000000 0.000000 0.000000 0.000000 1.005250 -0.760266 0.009081 -0.555760 -0.277056 -0.140917 20.135446 -21.198422 7.300851 -13.576333 20.264220 -3.186741 0.000000 0.000000 0.000000 0.000000 0.000000 0.000000 0.745945 -0.473639 0.159665 1.739206 3.772695 0.457998 -9.248544 -6.710686 -2.243439 7.926963 9.366383 0.100276 0.000000 0.000000 0.000000 0.000000 0.000000 0.000000 -1.177674 0.734529 42.043719 0.074734 -1.215779 0.440748 0.051768 -0.914411 0.288227 0.000000 0.000000 0.000000 -0.308008 -0.118361 42.478997 -0.000000 0.000000 0.000000 1.547556 5.546053 0.250603 0.000000 0.000000 0.000000
-28.473957 80.286069 355.489238 0.348548 -0.139958 -42.404420 -0.351751 -0.131702 42.404441 -0.000000 0.000000 0.000000 -0.000000 0.000000 0.000000 0.000000 0.000000 0.000000 1.066702 -0.697251 -0.021942 -0.609610 -0.573119 -0.124288 20.845751 -19.650282 7.848332 -12.710010 17.919608 -4.790124 0.000000 0.000000 0.000000 0.000000 0.000000 0.000000 0.793501 -0.586103 0.157843 2.087228 4.165468 0.529575 -9.687362 -8.085782 -2.377352 8.122431 7.352784 0.168259 0.000000 0.000000 0.000000 0.000000 0.000000 0.000000 -1.600114 1.151044 41.745837 0.077538 -1.788198 0.670920 0.017910 -2.015216 0.716971 0.000000 0.000000 0.000000 -0.351751 -0.131702 42.404441 -0.000000 0.000000 0.000000 2.454283 7.938146 0.137144 0.000000 0.000000 0.000000
-28.476640 80.296742 355.495779 0.384575 -0.175135 -42.359636 -0.402177 -0.129709 42.359768 -0.000000 0.000000 0.000000 -0.277453 -0.728878 0.420627 0.000000 0.000000 0.000000 1.247484 -0.708108 -0.055942 -0.934131 -0.792091 -0.075162 22.258220 -16.404332 8.880835 -12.911722 12.071097 -6.711867 0.000000 0.000000 0.000000 0.000000 0.000000 0.000000 0.834373 -0.670391 0.158179 2.106700 4.636985 0.552782 -9.290915 -8.072162 -2.352101 7.905233 7.474133 0.099812 0.000000 0.000000 0.000000 0.000000 0.000000 0.000000 -1.036870 0.772814 41.843329 -0.129219 -1.095749 0.518765 -0.000000 0.000000 0.000000 0.000000 0.000000 0.000000 -0.402177 -0.129709 42.359768 -0.000000 0.000000 0.000000 2.832071 8.922992 0.078132 0.000000 0.000000 0.000000
